# xmcd CD database file
#
# Track frame offsets:
#	188
#	18193
#	38313
#	56943
#	73168
#	86458
#	107990
#	128905
#	148450
#	171568
#
# Disc length: 2616 seconds
#
# Revision: 0
# Processed by: cddbd v1.5.2PL0 Copyright (c) Steve Scherf et al.
# Submitted via: CDex 1.51
#
DISCID=920a360a
DTITLE=Schneider and Delaney - Schneider meets Delaney
DYEAR=1990
DGENRE=Blues
TTITLE0=She's Not There
TTITLE1=Nothing Ever Changes
TTITLE2=I Made Up My Mind
TTITLE3=Over And Done
TTITLE4=Dust My Blues
TTITLE5=Let Your Love Shine
TTITLE6=Strange Love
TTITLE7=Teardrops
TTITLE8=Bridges
TTITLE9=Paradise Of Love
EXTD=YEAR: 1990
EXTT0=
EXTT1=
EXTT2=
EXTT3=
EXTT4=
EXTT5=
EXTT6=
EXTT7=
EXTT8=
EXTT9=
PLAYORDER=
